<svg xmlns="http://www.w3.org/2000/svg" viewBox="0 0 40 30" width="400" height="300">
  <g transform="translate(20 15)">
    <path d="M0 0 C 4 -11 15 -8.5 13 -1.5 C 11.8 2.8 5 3 0 0 Z" fill="#D2A6AE"></path>
    <path d="M0 0 C -4 -11 -15 -8.5 -13 -1.5 C -11.8 2.8 -5 3 0 0 Z" fill="#D2A6AE"></path>
    <path d="M0 0 C 3 7 11 7 9.8 1.8 C 9 -1 4 -0.6 0 0 Z" fill="#D2A6AE" opacity="0.8"></path>
    <path d="M0 0 C -3 7 -11 7 -9.8 1.8 C -9 -1 -4 -0.6 0 0 Z" fill="#D2A6AE" opacity="0.8"></path>
  </g>
</svg>