<svg xmlns="http://www.w3.org/2000/svg" viewBox="29 21 48 58" width="848" height="1024">
  <line x1="38" y1="30" x2="38" y2="70" stroke="#4A3B63" stroke-width="8" stroke-linecap="round"></line>
  <line x1="52" y1="50" x2="68" y2="30" stroke="#4A3B63" stroke-width="8" stroke-linecap="round"></line>
  <line x1="52" y1="50" x2="68" y2="70" stroke="#4A3B63" stroke-width="8" stroke-linecap="round"></line>
  <g transform="translate(45 50) scale(0.62)">
    <path d="M0 0 C 4 -11 15 -8.5 13 -1.5 C 11.8 2.8 5 3 0 0 Z" fill="#D2A6AE"></path>
    <path d="M0 0 C -4 -11 -15 -8.5 -13 -1.5 C -11.8 2.8 -5 3 0 0 Z" fill="#D2A6AE"></path>
    <path d="M0 0 C 3 7 11 7 9.8 1.8 C 9 -1 4 -0.6 0 0 Z" fill="#D2A6AE" opacity="0.8"></path>
    <path d="M0 0 C -3 7 -11 7 -9.8 1.8 C -9 -1 -4 -0.6 0 0 Z" fill="#D2A6AE" opacity="0.8"></path>
  </g>
</svg>